<svg id="icons" xmlns="http://www.w3.org/2000/svg" viewBox="0 0 110 110"><title>v60-coffee-dripper-pot</title><circle cx="55" cy="55" r="55" fill="transparent"/><g id="v60-coffee-dripper-pot"><path d="M38.48,81,48,53V49H66v4l9.52,28a3,3,0,0,1-2.82,4H41.3A3,3,0,0,1,38.48,81Z" fill="#fff"/><path d="M72,70l4,11a3.08,3.08,0,0,1-3,4H44.3a3,3,0,0,1-2.82-4l3.73-11Z" fill="#f2633a"/><polygon points="45.21 70 51 53 51 49 66 49 66 53 72 70 45.21 70" fill="#e5e8ec"/><polygon points="50 49 64 49 77 25 37 25 50 49" fill="#fff"/><polygon points="53 49 64 49 77 25 40 25 53 49" fill="#ffd147"/><polygon points="50 49 64 49 77 25 37 25 50 49" fill="none" stroke="#6e2a27" stroke-linecap="round" stroke-linejoin="round" stroke-width="2"/><rect x="51" y="49" width="12" height="5" fill="#fff"/><rect x="53" y="49" width="10" height="5" fill="#ffd147"/><rect x="51" y="49" width="12" height="5" fill="none" stroke="#6e2a27" stroke-linecap="round" stroke-linejoin="round" stroke-width="2"/><line x1="46" y1="49" x2="68" y2="49" fill="none" stroke="#6e2a27" stroke-linecap="round" stroke-linejoin="round" stroke-width="2"/><path d="M69,61l6.52,20a3,3,0,0,1-2.82,4H41.3a3,3,0,0,1-2.82-4L48,53V49H66v4Z" fill="none" stroke="#6e2a27" stroke-linecap="round" stroke-linejoin="round" stroke-width="2"/><path d="M41.15,73h0A6.15,6.15,0,0,1,35,66.85V59a6,6,0,0,1,6-6h7" fill="none" stroke="#6e2a27" stroke-miterlimit="10" stroke-width="2"/><polygon points="69 61 66 53 74 53 69 61" fill="none" stroke="#6e2a27" stroke-linecap="round" stroke-linejoin="round" stroke-width="2"/><path d="M38,27H35a2,2,0,0,0-2,2h0a12.77,12.77,0,0,0,8.47,12L47,43" fill="none" stroke="#6e2a27" stroke-linecap="round" stroke-linejoin="round" stroke-width="2"/><line x1="57" y1="54" x2="57" y2="60" fill="none" stroke="#6e2a27" stroke-miterlimit="10" stroke-width="2"/><line x1="57" y1="62" x2="57" y2="65" fill="none" stroke="#6e2a27" stroke-miterlimit="10" stroke-width="2"/><line x1="57" y1="67" x2="57" y2="69" fill="none" stroke="#6e2a27" stroke-miterlimit="10" stroke-width="2"/><line x1="41" y1="31" x2="73" y2="31" fill="none" stroke="#6e2a27" stroke-linecap="round" stroke-linejoin="round" stroke-width="2"/><line x1="44" y1="37" x2="70" y2="37" fill="none" stroke="#6e2a27" stroke-linecap="round" stroke-linejoin="round" stroke-width="2"/><line x1="47" y1="43" x2="67" y2="43" fill="none" stroke="#6e2a27" stroke-linejoin="round" stroke-width="2"/></g></svg>